<mxfile host="app.diagrams.net" modified="2023-11-05T22:28:19.353Z" agent="Mozilla/5.0 (Windows NT 10.0; Win64; x64) AppleWebKit/537.36 (KHTML, like Gecko) Chrome/116.0.0.0 Safari/537.36 OPR/102.0.0.0" etag="7HdVpUeX8E0zkcRq8v_L" version="22.0.8" type="device">
  <diagram name="Page-1" id="b5b7bab2-c9e2-2cf4-8b2a-24fd1a2a6d21">
    <mxGraphModel dx="751" dy="764" grid="1" gridSize="10" guides="1" tooltips="1" connect="1" arrows="1" fold="1" page="1" pageScale="1" pageWidth="827" pageHeight="1169" background="none" math="0" shadow="0">
      <root>
        <mxCell id="0" />
        <mxCell id="1" parent="0" />
        <mxCell id="ZnDk2_azTk9GWEf8HhP4-1" value="&lt;b&gt;&amp;lt;&amp;lt;Servidor IFSP - 10.117.50.68&amp;gt;&amp;gt;&lt;br&gt;&lt;/b&gt;Ubuntu Server" style="verticalAlign=top;align=center;spacingTop=8;spacingLeft=2;spacingRight=12;shape=cube;size=10;direction=south;fontStyle=0;html=1;labelBackgroundColor=none;fillColor=#d5e8d4;strokeColor=#FFFFFF;" parent="1" vertex="1">
          <mxGeometry x="40" y="160" width="350" height="520" as="geometry" />
        </mxCell>
        <mxCell id="ZnDk2_azTk9GWEf8HhP4-2" value="&lt;b&gt;&amp;lt;&amp;lt;Docker&amp;gt;&amp;gt;&lt;br&gt;&lt;/b&gt;Docker Daemon" style="verticalAlign=top;align=center;spacingTop=8;spacingLeft=2;spacingRight=12;shape=cube;size=10;direction=south;fontStyle=0;html=1;fillColor=#dae8fc;strokeColor=#6c8ebf;" parent="1" vertex="1">
          <mxGeometry x="50" y="210" width="323" height="460" as="geometry" />
        </mxCell>
        <mxCell id="ZnDk2_azTk9GWEf8HhP4-6" value="TCP/IP - 3306" style="edgeStyle=orthogonalEdgeStyle;rounded=0;orthogonalLoop=1;jettySize=auto;html=1;exitX=0;exitY=0;exitDx=160;exitDy=151.5;exitPerimeter=0;entryX=0;entryY=0.515;entryDx=0;entryDy=0;entryPerimeter=0;labelBackgroundColor=none;fontColor=none;endArrow=none;endFill=0;labelPosition=right;verticalLabelPosition=middle;align=left;verticalAlign=middle;" parent="1" source="ZnDk2_azTk9GWEf8HhP4-3" target="ZnDk2_azTk9GWEf8HhP4-4" edge="1">
          <mxGeometry relative="1" as="geometry" />
        </mxCell>
        <mxCell id="ZnDk2_azTk9GWEf8HhP4-3" value="&lt;b&gt;&amp;lt;&amp;lt;Paraya Server - 172.24.0.2&amp;gt;&lt;br&gt;&lt;/b&gt;Ubuntu" style="verticalAlign=top;align=center;spacingTop=8;spacingLeft=2;spacingRight=12;shape=cube;size=10;direction=south;fontStyle=0;html=1;fillColor=#fff2cc;strokeColor=#d6b656;" parent="1" vertex="1">
          <mxGeometry x="60" y="260" width="293" height="160" as="geometry" />
        </mxCell>
        <mxCell id="ZnDk2_azTk9GWEf8HhP4-4" value="&lt;b&gt;&amp;lt;&amp;lt;MySQL- 172.24.0.4&amp;gt;&amp;gt;&lt;br&gt;&lt;/b&gt;Ubuntu" style="verticalAlign=top;align=center;spacingTop=8;spacingLeft=2;spacingRight=12;shape=cube;size=10;direction=south;fontStyle=0;html=1;fillColor=#f8cecc;strokeColor=#b85450;" parent="1" vertex="1">
          <mxGeometry x="60" y="480" width="293" height="170" as="geometry" />
        </mxCell>
        <mxCell id="ZnDk2_azTk9GWEf8HhP4-14" style="edgeStyle=orthogonalEdgeStyle;rounded=0;orthogonalLoop=1;jettySize=auto;html=1;exitX=0;exitY=0;exitDx=97.5;exitDy=240;exitPerimeter=0;entryX=0.542;entryY=-0.009;entryDx=0;entryDy=0;entryPerimeter=0;labelBackgroundColor=none;fontColor=none;endArrow=none;endFill=0;" parent="1" source="ZnDk2_azTk9GWEf8HhP4-7" target="ZnDk2_azTk9GWEf8HhP4-1" edge="1">
          <mxGeometry relative="1" as="geometry" />
        </mxCell>
        <mxCell id="ZnDk2_azTk9GWEf8HhP4-15" value="HTTP - 8080" style="edgeLabel;html=1;align=center;verticalAlign=middle;resizable=0;points=[];fontColor=none;" parent="ZnDk2_azTk9GWEf8HhP4-14" vertex="1" connectable="0">
          <mxGeometry x="-0.2004" y="1" relative="1" as="geometry">
            <mxPoint x="-7" y="-13" as="offset" />
          </mxGeometry>
        </mxCell>
        <mxCell id="ZnDk2_azTk9GWEf8HhP4-7" value="&lt;b&gt;&amp;lt;&amp;lt;Cliente&amp;gt;&amp;gt;&lt;br&gt;&lt;/b&gt;" style="verticalAlign=top;align=center;spacingTop=8;spacingLeft=2;spacingRight=12;shape=cube;size=10;direction=south;fontStyle=0;html=1;labelBackgroundColor=none;fillColor=#d5e8d4;strokeColor=#FFFFFF;" parent="1" vertex="1">
          <mxGeometry x="500" y="345" width="240" height="185" as="geometry" />
        </mxCell>
        <mxCell id="ZnDk2_azTk9GWEf8HhP4-8" value="&lt;b&gt;&amp;lt;&amp;lt;Navegador Web&amp;gt;&amp;gt;&lt;br&gt;&lt;/b&gt;" style="verticalAlign=top;align=center;spacingTop=8;spacingLeft=2;spacingRight=12;shape=cube;size=10;direction=south;fontStyle=0;html=1;labelBackgroundColor=none;fillColor=#dae8fc;strokeColor=#6c8ebf;" parent="1" vertex="1">
          <mxGeometry x="510" y="380" width="210" height="130" as="geometry" />
        </mxCell>
        <mxCell id="ZnDk2_azTk9GWEf8HhP4-11" value="«artifact»&lt;br&gt;&lt;b&gt;XHTML&lt;/b&gt;" style="html=1;labelBackgroundColor=none;strokeColor=#000000;fontColor=none;" parent="1" vertex="1">
          <mxGeometry x="530" y="420" width="170" height="80" as="geometry" />
        </mxCell>
        <mxCell id="ZnDk2_azTk9GWEf8HhP4-12" value="«artifact»&lt;br&gt;&lt;b&gt;Web Application&lt;/b&gt;" style="html=1;labelBackgroundColor=none;strokeColor=#000000;fontColor=none;" parent="1" vertex="1">
          <mxGeometry x="121.5" y="320" width="170" height="80" as="geometry" />
        </mxCell>
        <mxCell id="ZnDk2_azTk9GWEf8HhP4-13" value="«artifact»&lt;br&gt;&lt;b&gt;MySQL Database&lt;/b&gt;" style="html=1;labelBackgroundColor=none;strokeColor=#000000;fontColor=none;" parent="1" vertex="1">
          <mxGeometry x="121.5" y="545" width="170" height="80" as="geometry" />
        </mxCell>
      </root>
    </mxGraphModel>
  </diagram>
</mxfile>
